<svg width="20" height="20" viewBox="0 0 20 20" fill="none" xmlns="http://www.w3.org/2000/svg">
<path d="M13.7886 10.8333C14.4136 10.8333 14.9636 10.4917 15.2469 9.975L18.2302 4.56666C18.5386 4.01666 18.1386 3.33333 17.5052 3.33333H5.17191L4.38857 1.66666H1.66357V3.33333H3.33024L6.33024 9.65833L5.20524 11.6917C4.59691 12.8083 5.39691 14.1667 6.66357 14.1667H16.6636V12.5H6.66357L7.58024 10.8333H13.7886ZM5.96357 5H16.0886L13.7886 9.16666H7.93857L5.96357 5ZM6.66357 15C5.74691 15 5.00524 15.75 5.00524 16.6667C5.00524 17.5833 5.74691 18.3333 6.66357 18.3333C7.58024 18.3333 8.33024 17.5833 8.33024 16.6667C8.33024 15.75 7.58024 15 6.66357 15ZM14.9969 15C14.0802 15 13.3386 15.75 13.3386 16.6667C13.3386 17.5833 14.0802 18.3333 14.9969 18.3333C15.9136 18.3333 16.6636 17.5833 16.6636 16.6667C16.6636 15.75 15.9136 15 14.9969 15Z" fill="#6891EA"/>
</svg>
