<svg width="25" height="26" viewBox="0 0 25 26" fill="none" xmlns="http://www.w3.org/2000/svg">
<g filter="url(#filter0_d_2_140)">
<path d="M5.5 22.9953H1.75C1.34 22.9953 1 22.6553 1 22.2453V19.4253C1 18.6353 1.32 17.8653 1.88 17.3053L8.38 10.8053C8.58 10.6053 8.65998 10.2653 8.59998 9.89527C8.43998 8.96527 8.47001 8.03526 8.70001 7.12526C8.92001 6.21526 9.33002 5.37526 9.90002 4.62526C10.48 3.87526 11.19 3.27527 12.01 2.82527C12.84 2.37527 13.73 2.10526 14.67 2.02526C15.61 1.94526 16.53 2.05526 17.42 2.35526C18.31 2.65526 19.12 3.13526 19.81 3.76526C20.5 4.39526 21.05 5.15526 21.43 6.02526C21.81 6.88526 22 7.79526 22 8.73526C22 9.71526 21.78 10.6953 21.37 11.5853C20.95 12.4753 20.34 13.2753 19.59 13.9053C18.83 14.5453 17.96 14.9953 17 15.2553C16.06 15.5053 15.05 15.5553 14.08 15.3853C13.71 15.3253 13.38 15.4053 13.18 15.6053L10.52 18.2653C10.38 18.4053 10.19 18.4853 9.98999 18.4853H8.48999V19.9853C8.48999 20.3953 8.14999 20.7353 7.73999 20.7353H6.23999V22.2353C6.23999 22.6453 5.89999 22.9853 5.48999 22.9853L5.5 22.9953ZM2.5 21.4953H4.75V19.9953C4.75 19.5853 5.09 19.2453 5.5 19.2453H7V17.7453C7 17.3353 7.34 16.9953 7.75 16.9953H9.69L12.13 14.5553C12.68 14.0053 13.5 13.7753 14.35 13.9153C15.1 14.0453 15.89 14.0153 16.62 13.8153C17.36 13.6153 18.04 13.2653 18.63 12.7653C19.21 12.2753 19.69 11.6553 20.01 10.9653C20.33 10.2753 20.5 9.51527 20.5 8.75527C20.5 8.02527 20.35 7.31527 20.05 6.64527C19.76 5.97527 19.33 5.38527 18.79 4.89527C18.25 4.40527 17.63 4.03527 16.93 3.79527C16.24 3.55527 15.51 3.47527 14.79 3.53527C14.06 3.59527 13.37 3.80527 12.72 4.15527C12.08 4.50527 11.53 4.97526 11.08 5.55526C10.63 6.13526 10.32 6.78526 10.14 7.49526C9.96001 8.20526 9.94 8.93527 10.06 9.65527C10.21 10.5053 9.96998 11.3353 9.41998 11.8753L2.91998 18.3753C2.63998 18.6553 2.47998 19.0453 2.47998 19.4353V21.5053L2.5 21.4953ZM18.25 9.49526C17.84 9.49526 17.5 9.15526 17.5 8.74526C17.5 8.14526 17.27 7.57527 16.84 7.15527C16.42 6.72527 15.85 6.49526 15.25 6.49526C14.84 6.49526 14.5 6.15526 14.5 5.74526C14.5 5.33526 14.84 4.99526 15.25 4.99526C16.25 4.99526 17.19 5.38526 17.9 6.09526C18.61 6.80526 19 7.74526 19 8.74526C19 9.15526 18.66 9.49526 18.25 9.49526Z" fill="#123662"/>
</g>
<defs>
<filter id="filter0_d_2_140" x="-1" y="-1" width="28" height="28" filterUnits="userSpaceOnUse" color-interpolation-filters="sRGB">
<feFlood flood-opacity="0" result="BackgroundImageFix"/>
<feColorMatrix in="SourceAlpha" type="matrix" values="0 0 0 0 0 0 0 0 0 0 0 0 0 0 0 0 0 0 127 0" result="hardAlpha"/>
<feOffset dx="1" dy="1"/>
<feGaussianBlur stdDeviation="1"/>
<feColorMatrix type="matrix" values="0 0 0 0 0 0 0 0 0 0 0 0 0 0 0 0 0 0 0.3 0"/>
<feBlend mode="normal" in2="BackgroundImageFix" result="effect1_dropShadow_2_140"/>
<feBlend mode="normal" in="SourceGraphic" in2="effect1_dropShadow_2_140" result="shape"/>
</filter>
</defs>
</svg>
