<svg width="27" height="28" viewBox="0 0 27 28" fill="none" xmlns="http://www.w3.org/2000/svg">
<g filter="url(#filter0_d_1_4)">
<path d="M3.26386 5.83346C3.12051 5.83127 2.97818 5.85983 2.84516 5.91748C2.71213 5.97513 2.59105 6.06072 2.48897 6.16927C2.38688 6.27782 2.30581 6.40717 2.25048 6.5498C2.19515 6.69243 2.16666 6.8455 2.16666 7.00011C2.16666 7.15472 2.19515 7.30779 2.25048 7.45042C2.30581 7.59305 2.38688 7.7224 2.48897 7.83095C2.59105 7.9395 2.71213 8.02509 2.84516 8.08274C2.97818 8.14039 3.12051 8.16895 3.26386 8.16676H22.7361C22.8795 8.16895 23.0218 8.14039 23.1548 8.08274C23.2879 8.02509 23.4089 7.9395 23.511 7.83095C23.6131 7.7224 23.6942 7.59305 23.7495 7.45042C23.8048 7.30779 23.8333 7.15472 23.8333 7.00011C23.8333 6.8455 23.8048 6.69243 23.7495 6.5498C23.6942 6.40717 23.6131 6.27782 23.511 6.16927C23.4089 6.06072 23.2879 5.97513 23.1548 5.91748C23.0218 5.85983 22.8795 5.83127 22.7361 5.83346H3.26386ZM3.26386 12.8334C3.12051 12.8312 2.97818 12.8597 2.84516 12.9174C2.71213 12.975 2.59105 13.0606 2.48897 13.1692C2.38688 13.2777 2.30581 13.4071 2.25048 13.5497C2.19515 13.6923 2.16666 13.8454 2.16666 14C2.16666 14.1546 2.19515 14.3077 2.25048 14.4503C2.30581 14.593 2.38688 14.7223 2.48897 14.8309C2.59105 14.9394 2.71213 15.025 2.84516 15.0826C2.97818 15.1403 3.12051 15.1688 3.26386 15.1667H22.7361C22.8795 15.1688 23.0218 15.1403 23.1548 15.0826C23.2879 15.025 23.4089 14.9394 23.511 14.8309C23.6131 14.7223 23.6942 14.593 23.7495 14.4503C23.8048 14.3077 23.8333 14.1546 23.8333 14C23.8333 13.8454 23.8048 13.6923 23.7495 13.5497C23.6942 13.4071 23.6131 13.2777 23.511 13.1692C23.4089 13.0606 23.2879 12.975 23.1548 12.9174C23.0218 12.8597 22.8795 12.8312 22.7361 12.8334H3.26386ZM3.26386 19.8333C3.12051 19.8311 2.97818 19.8596 2.84516 19.9173C2.71213 19.9749 2.59105 20.0605 2.48897 20.1691C2.38688 20.2776 2.30581 20.407 2.25048 20.5496C2.19515 20.6922 2.16666 20.8453 2.16666 20.9999C2.16666 21.1545 2.19515 21.3076 2.25048 21.4502C2.30581 21.5929 2.38688 21.7222 2.48897 21.8308C2.59105 21.9393 2.71213 22.0249 2.84516 22.0825C2.97818 22.1402 3.12051 22.1687 3.26386 22.1666H22.7361C22.8795 22.1687 23.0218 22.1402 23.1548 22.0825C23.2879 22.0249 23.4089 21.9393 23.511 21.8308C23.6131 21.7222 23.6942 21.5929 23.7495 21.4502C23.8048 21.3076 23.8333 21.1545 23.8333 20.9999C23.8333 20.8453 23.8048 20.6922 23.7495 20.5496C23.6942 20.407 23.6131 20.2776 23.511 20.1691C23.4089 20.0605 23.2879 19.9749 23.1548 19.9173C23.0218 19.8596 22.8795 19.8311 22.7361 19.8333H3.26386Z" fill="#347FDB"/>
</g>
<defs>
<filter id="filter0_d_1_4" x="0" y="0" width="29" height="30" filterUnits="userSpaceOnUse" color-interpolation-filters="sRGB">
<feFlood flood-opacity="0" result="BackgroundImageFix"/>
<feColorMatrix in="SourceAlpha" type="matrix" values="0 0 0 0 0 0 0 0 0 0 0 0 0 0 0 0 0 0 127 0" result="hardAlpha"/>
<feOffset dx="2" dy="1"/>
<feGaussianBlur stdDeviation="0.5"/>
<feColorMatrix type="matrix" values="0 0 0 0 0 0 0 0 0 0 0 0 0 0 0 0 0 0 0.25 0"/>
<feBlend mode="normal" in2="BackgroundImageFix" result="effect1_dropShadow_1_4"/>
<feBlend mode="normal" in="SourceGraphic" in2="effect1_dropShadow_1_4" result="shape"/>
</filter>
</defs>
</svg>
