<svg width="20" height="20" viewBox="0 0 20 20" fill="none" xmlns="http://www.w3.org/2000/svg">
<path d="M18.0746 16.8282L13.4575 12.2099C14.4653 10.8847 14.9322 9.22615 14.7639 7.56968C14.5956 5.91322 13.8045 4.38255 12.5507 3.28735C11.2969 2.19215 9.67408 1.61419 8.01046 1.6704C6.34684 1.72662 4.76667 2.4128 3.58964 3.59013C2.41261 4.76746 1.7266 6.34804 1.6704 8.01209C1.61421 9.67614 2.19202 11.2994 3.28693 12.5535C4.38185 13.8076 5.91212 14.5989 7.56816 14.7673C9.2242 14.9357 10.8824 14.4686 12.2072 13.4605L16.8243 18.0789C16.9915 18.242 17.2159 18.3333 17.4495 18.3333C17.6831 18.3333 17.9074 18.242 18.0746 18.0789C18.2403 17.9129 18.3333 17.688 18.3333 17.4535C18.3333 17.2191 18.2403 16.9942 18.0746 16.8282ZM3.48269 8.25572C3.48269 7.31138 3.76265 6.38824 4.28716 5.60305C4.81168 4.81786 5.55719 4.20587 6.42942 3.84449C7.30166 3.4831 8.26144 3.38855 9.1874 3.57278C10.1134 3.75701 10.9639 4.21176 11.6315 4.87951C12.2991 5.54726 12.7537 6.39803 12.9379 7.32423C13.1221 8.25043 13.0275 9.21046 12.6662 10.0829C12.305 10.9554 11.6931 11.7011 10.9081 12.2257C10.1231 12.7504 9.20025 13.0304 8.25615 13.0304C6.99061 13.0289 5.77733 12.5254 4.88246 11.6303C3.98758 10.7352 3.48419 9.52159 3.48269 8.25572Z" fill="#5C5C5C"/>
</svg>
